<?xml version="1.0" encoding="UTF-8"?>
<svg xmlns="http://www.w3.org/2000/svg" version="1.1"
 viewBox="4000 16850 99500 11400">
<defs>
  <linearGradient id="g-grad" x1="0.25" y1="0" x2="0.9" y2="1">
    <stop offset="0%" stop-color="#1a70e8"/>
    <stop offset="100%" stop-color="#00d0c0"/>
  </linearGradient>
</defs>
<g transform="translate(0.000000,44496.000000) scale(7.200000,-7.200000)" fill="#1b2134" stroke="none">
<path d="M697 4633 c-10 -9 -8 -3325 1 -3340 5 -8 61 -10 197 -8 105 1 198 3
207 4 17 1 18 77 20 1403 l3 1401 272 -300 c381 -421 779 -875 1552 -1768 405
-467 442 -508 521 -570 124 -96 310 -162 471 -166 l84 -2 3 1676 2 1677 -215
0 -215 0 0 -1326 c0 -1233 -1 -1325 -17 -1313 -9 8 -85 93 -168 189 -84 96
-231 265 -326 375 -96 110 -285 328 -419 485 -310 361 -669 775 -870 1000 -85
97 -204 231 -264 299 -112 127 -188 191 -279 235 -96 47 -156 56 -362 56 -106
0 -195 -3 -198 -7z"/><path d="M5220 3741 c-342 -74 -600 -338 -714 -732 -118 -410 -71 -927 115
-1244 149 -256 341 -401 614 -461 72 -16 154 -18 795 -20 413 -1 742 2 780 7
142 21 278 125 345 263 18 39 37 81 40 94 l6 22 -898 0 c-741 0 -910 3 -966
15 -158 33 -292 144 -370 305 -45 92 -79 204 -92 303 l-6 47 1200 0 1201 0 1
53 c6 240 -1 544 -15 625 -66 381 -262 622 -581 713 -79 23 -85 23 -725 26
-592 2 -652 0 -730 -16z m1273 -376 c85 -22 154 -61 211 -119 95 -96 142 -225
153 -418 l6 -108 -997 0 c-548 0 -996 4 -996 8 0 28 25 139 46 206 75 234 217
383 412 430 87 22 1084 22 1165 1z"/><path d="M7660 3000 c0 -800 4 -890 45 -1045 47 -179 118 -300 248 -421 127
-119 293 -197 482 -228 120 -20 580 -29 865 -17 293 12 408 41 564 143 32 21
60 38 62 38 2 0 5 -42 6 -92 l3 -93 205 0 205 0 3 1238 2 1237 -210 0 -210 0
0 -752 c0 -465 -4 -778 -10 -818 -40 -254 -187 -420 -430 -487 -58 -16 -112
-18 -485 -18 -469 0 -481 1 -624 71 -96 47 -187 137 -230 226 -67 140 -65 111
-68 986 l-4 792 -209 0 -210 0 0 -760z"/>
</g>
<g transform="translate(0.000000,44496.000000) scale(7.200000,-7.200000)" fill="url(#g-grad)" stroke="none">
<path d="M12209 4665 c-670 -105 -1224 -612 -1399 -1280 -47 -181 -55 -246
-54 -455 0 -161 4 -215 23 -309 73 -370 251 -689 533 -956 231 -218 525 -366
838 -421 91 -17 161 -19 525 -19 463 0 508 4 702 66 453 144 771 538 843 1045
11 85 17 674 6 692 -11 18 -1585 18 -1608 0 -29 -22 -297 -381 -292 -390 3 -4
324 -8 715 -8 l709 0 0 -64 c0 -346 -171 -644 -445 -775 -149 -72 -168 -74
-570 -79 -395 -4 -456 1 -624 49 -397 113 -720 453 -826 867 -79 310 -47 601
99 889 169 336 461 561 834 644 92 21 131 22 747 29 487 5 660 9 690 19 160
51 326 198 409 359 26 51 44 97 41 102 -10 16 -1789 11 -1896 -5z"/><path d="M692 4638 c-17 -17 -17 -3339 0 -3356 13 -13 391 -18 422 -6 15 6 16
138 16 1402 l0 1396 38 -35 37 -34 -40 43 -40 43 -3 -1401 c-2 -1109 -5 -1400
-15 -1401 -6 -1 -101 -3 -209 -5 -196 -3 -198 -3 -203 19 -3 12 -4 767 -3
1677 l3 1655 220 -1 c183 0 227 -3 264 -17 24 -10 46 -15 49 -13 2 3 -26 14
-63 25 -58 18 -93 21 -264 21 -140 0 -200 -3 -209 -12z"/><path d="M3813 4643 l217 -3 -2 -1677 -3 -1676 -84 2 c-106 3 -246 38 -342 86
-85 43 -128 74 -220 159 -36 34 -26 23 21 -24 103 -101 168 -142 298 -186 99
-34 273 -61 319 -50 l23 6 -2 1683 -3 1682 -220 0 -220 1 218 -3z"/><path d="M3588 3319 l-3 -1312 -161 184 c-432 495 -523 603 -517 613 3 5 1 6
-5 2 -12 -7 -59 50 -54 66 1 5 -2 7 -7 4 -12 -8 -73 69 -63 79 4 5 2 5 -4 2
-6 -3 -36 24 -67 62 -32 37 -67 77 -79 87 -27 23 4 -14 383 -450 500 -578 555
-641 572 -655 16 -13 17 78 17 1308 0 726 -2 1321 -5 1321 -3 0 -6 -590 -7
-1311z"/><path d="M1294 4568 c97 -67 149 -114 242 -219 60 -68 181 -205 270 -305 88
-100 289 -329 445 -510 156 -180 301 -346 323 -369 40 -42 -97 123 -197 237
-35 41 -56 72 -51 79 4 7 3 9 -3 6 -6 -4 -69 59 -139 141 -390 445 -730 826
-775 865 -27 24 -69 54 -92 66 -23 12 -34 16 -23 9z"/><path d="M1223 3974 c9 -11 14 -25 10 -30 -5 -5 -4 -6 1 -1 5 4 22 -5 38 -20
15 -15 28 -25 28 -22 0 3 -21 25 -47 49 -26 25 -40 36 -30 24z"/><path d="M1437 3738 c352 -392 763 -859 1023 -1162 19 -23 112 -129 205 -236
94 -107 275 -315 403 -462 128 -148 236 -268 239 -268 3 0 -24 33 -59 73 -35
39 -199 227 -363 417 -846 976 -1564 1790 -1581 1790 -2 0 57 -69 133 -152z"/><path d="M7655 3758 c-3 -7 -4 -355 -3 -773 l3 -760 3 768 2 767 210 0 209 0
4 -792 c3 -875 1 -846 68 -986 43 -89 134 -179 230 -226 83 -40 176 -67 229
-65 26 1 19 4 -25 10 -192 28 -345 130 -421 281 -68 136 -67 117 -73 993 l-6
790 -213 3 c-164 2 -214 0 -217 -10z"/><path d="M9925 3758 c-3 -7 -4 -355 -3 -773 l3 -760 3 768 2 767 210 0 210 0
-2 -1237 -3 -1238 -205 0 -205 0 -3 93 c-1 50 -4 92 -6 92 -2 0 -30 -17 -62
-38 -156 -102 -271 -131 -564 -143 -285 -12 -745 -3 -865 17 -195 32 -355 109
-494 239 -47 43 -70 62 -51 41 173 -191 379 -283 690 -307 202 -16 861 -6 970
15 100 20 233 72 307 121 29 19 55 35 58 35 3 0 5 -38 5 -84 0 -67 3 -85 16
-90 23 -9 397 -7 412 2 10 7 12 263 10 1248 l-3 1239 -213 3 c-164 2 -214 0
-217 -10z"/><path d="M6827 3671 c89 -47 129 -77 207 -155 47 -48 53 -52 27 -19 -17 23
-50 56 -71 73 -22 17 -39 36 -37 43 1 6 -7 11 -18 12 -11 0 -19 6 -17 13 1 8
-1 11 -6 8 -5 -3 -38 10 -73 29 -35 19 -68 35 -74 35 -5 -1 23 -18 62 -39z"/><path d="M4950 3644 c-63 -36 -169 -125 -217 -182 -212 -251 -315 -594 -300
-1002 9 -259 51 -441 147 -635 162 -329 414 -509 761 -545 129 -13 1392 -13
1473 0 91 15 179 61 246 130 33 33 64 70 71 82 6 13 -4 5 -22 -17 -91 -109
-186 -167 -299 -184 -38 -5 -367 -8 -780 -7 -641 2 -723 4 -795 20 -273 60
-465 205 -614 461 -229 391 -240 1049 -26 1469 98 193 199 302 391 423 35 22
9 13 -36 -13z"/><path d="M5327 3364 c-32 -8 -66 -19 -75 -25 -15 -9 -14 -10 3 -4 101 33 143
35 660 35 316 0 537 -4 564 -11 59 -13 142 -49 136 -59 -3 -4 3 -7 13 -6 9 0
16 -5 14 -12 -1 -8 2 -11 8 -7 16 10 3 23 -51 50 -105 54 -121 55 -689 54
-416 0 -537 -4 -583 -15z"/><path d="M6708 3235 c83 -103 126 -229 138 -405 l7 -100 -986 0 c-930 0 -986
1 -990 18 -4 13 -5 11 -6 -5 l-1 -23 996 0 997 0 -6 108 c-10 187 -56 317
-145 411 l-44 46 40 -50z"/><path d="M7272 2393 l-2 -53 -1200 0 -1200 0 1 -22 c1 -17 2 -19 6 -5 4 16 70
17 1199 17 1009 0 1195 2 1200 14 3 7 4 33 1 57 -3 44 -4 43 -5 -8z"/><path d="M9760 1864 c-62 -62 -126 -102 -223 -135 -45 -16 -74 -29 -65 -29 25
0 142 45 187 72 40 24 90 67 130 111 40 44 19 31 -29 -19z"/><path d="M6294 1673 c719 -3 907 -6 903 -16 -2 -6 -7 -23 -11 -37 -4 -17 -1
-14 9 8 9 18 13 37 10 43 -4 5 -351 8 -913 7 l-907 -3 909 -2z"/>
</g>
</svg>